<?xml version="1.0" standalone="no"?>
<!DOCTYPE svg PUBLIC "-//W3C//DTD SVG 20010904//EN"
 "http://www.w3.org/TR/2001/REC-SVG-20010904/DTD/svg10.dtd">
<svg version="1.0" xmlns="http://www.w3.org/2000/svg"
 width="1280.000000pt" height="1280.000000pt" viewBox="0 0 1280.000000 1280.000000"
 preserveAspectRatio="xMidYMid meet">
<metadata>
Created by potrace 1.11, written by Peter Selinger 2001-2013
</metadata>
<g transform="translate(0.000000,1280.000000) scale(0.100000,-0.100000)"
fill="#000000" stroke="none">
<path d="M6088 12795 c-2 -2 -55 -6 -118 -10 -63 -3 -128 -8 -145 -10 -16 -3
-57 -7 -90 -10 -33 -3 -73 -7 -90 -9 -60 -7 -138 -18 -154 -21 -9 -2 -44 -7
-76 -11 -33 -4 -62 -8 -65 -9 -3 -1 -25 -5 -50 -9 -25 -5 -54 -10 -65 -12 -11
-3 -36 -7 -55 -10 -19 -3 -62 -12 -95 -19 -33 -8 -74 -17 -92 -20 -18 -3 -45
-10 -60 -16 -15 -6 -29 -10 -31 -9 -4 3 -64 -11 -137 -31 -260 -71 -553 -166
-655 -211 -14 -7 -27 -12 -30 -13 -13 -3 -130 -49 -165 -65 -22 -10 -56 -25
-75 -33 -201 -86 -581 -279 -588 -298 -2 -5 -12 -9 -22 -9 -10 0 -21 -4 -24
-8 -3 -5 -43 -30 -88 -57 -193 -112 -514 -335 -718 -498 -283 -227 -577 -509
-815 -781 -33 -38 -64 -74 -70 -80 -5 -6 -32 -38 -58 -71 -26 -33 -56 -69 -65
-80 -95 -109 -492 -682 -492 -711 0 -2 -11 -21 -23 -42 -13 -20 -35 -57 -49
-82 -14 -25 -35 -63 -48 -85 -70 -123 -300 -607 -300 -631 0 -3 -9 -24 -20
-48 -20 -45 -122 -322 -139 -378 -5 -18 -28 -94 -51 -168 -22 -74 -57 -198
-76 -275 -35 -136 -105 -468 -103 -483 1 -4 0 -9 -1 -12 -4 -10 -10 -47 -16
-95 -3 -27 -7 -57 -9 -65 -1 -8 -5 -42 -9 -75 -4 -33 -10 -71 -12 -85 -2 -14
-7 -54 -10 -90 -3 -36 -7 -80 -10 -98 -12 -95 -19 -289 -18 -567 0 -327 7
-487 29 -660 2 -22 7 -67 10 -100 3 -33 10 -85 15 -115 9 -52 13 -82 25 -167
11 -73 53 -281 87 -428 33 -147 144 -535 168 -590 5 -11 27 -72 50 -135 22
-63 44 -124 49 -135 5 -11 18 -41 30 -67 12 -26 21 -54 21 -61 0 -7 4 -17 8
-23 5 -5 19 -34 32 -64 58 -141 227 -483 261 -532 11 -14 19 -29 19 -32 0 -3
20 -40 45 -82 25 -41 45 -77 45 -79 0 -13 247 -386 328 -495 65 -87 224 -293
232 -300 3 -3 30 -34 60 -70 197 -232 447 -486 665 -674 44 -38 82 -72 85 -75
3 -3 39 -33 80 -66 41 -33 77 -62 80 -66 10 -11 277 -207 355 -260 142 -97
395 -253 519 -321 10 -5 33 -18 50 -27 46 -26 281 -144 356 -179 61 -28 118
-54 200 -89 19 -9 49 -21 65 -28 17 -7 55 -22 85 -33 30 -11 93 -35 140 -52
118 -44 376 -129 440 -145 8 -2 51 -13 95 -25 44 -12 87 -23 95 -25 8 -2 42
-10 76 -19 95 -25 371 -80 452 -90 24 -3 46 -7 50 -10 4 -2 34 -7 67 -10 33
-3 71 -8 85 -10 28 -5 86 -12 170 -21 30 -3 75 -7 100 -10 124 -14 283 -19
565 -19 327 0 456 5 670 29 28 3 73 8 100 10 28 3 77 9 110 15 33 5 76 11 95
14 19 2 49 7 65 10 17 3 44 8 60 10 27 4 156 29 210 40 11 3 54 12 95 21 277
59 636 169 945 290 140 55 353 148 403 175 9 5 71 36 137 68 108 54 301 160
413 227 173 103 479 311 577 392 6 5 39 31 75 58 36 27 67 52 70 55 3 3 30 25
60 50 30 25 57 47 60 50 3 3 39 34 80 70 141 122 387 363 515 505 39 43 75 83
80 89 6 6 33 38 61 71 27 33 59 71 71 85 207 238 572 787 716 1075 13 28 45
91 70 140 80 161 240 525 252 575 2 8 18 51 34 95 31 80 104 306 136 420 9 33
23 80 30 105 8 25 16 56 18 70 3 14 12 52 21 85 16 62 42 181 51 237 3 18 8
41 11 51 3 10 7 31 9 47 2 16 9 55 14 87 6 32 13 76 16 98 3 22 8 49 10 60 2
11 7 47 10 80 4 33 8 70 10 81 5 33 14 121 20 194 3 36 8 106 12 155 10 119
10 717 0 825 -4 47 -9 114 -12 150 -3 36 -8 85 -11 110 -3 25 -7 59 -9 75 -8
70 -16 128 -25 192 -6 37 -13 84 -15 103 -3 19 -10 60 -17 90 -6 30 -12 64
-14 75 -2 20 -18 97 -56 260 -33 147 -144 535 -168 590 -5 11 -27 72 -50 135
-22 63 -45 125 -50 138 -6 12 -14 32 -19 45 -103 247 -129 304 -226 497 -91
183 -108 214 -117 218 -5 2 -8 8 -8 13 0 4 -20 43 -45 85 -25 41 -45 77 -45
79 0 5 -134 215 -203 318 -108 160 -309 424 -416 547 -12 14 -46 52 -74 85
-158 181 -401 424 -582 582 -103 89 -109 94 -149 126 -21 18 -43 37 -50 42
-72 65 -399 304 -490 359 -17 10 -33 21 -36 25 -8 11 -140 91 -151 91 -5 0 -9
4 -9 9 0 5 -8 12 -17 15 -10 4 -34 16 -55 29 -220 134 -537 293 -798 402 -63
26 -124 51 -135 56 -75 33 -379 137 -515 176 -77 22 -333 90 -370 98 -8 2 -36
8 -63 14 -26 6 -64 14 -85 17 -20 3 -40 8 -43 10 -3 2 -21 6 -40 9 -19 3 -56
10 -84 15 -27 5 -66 12 -85 14 -19 3 -46 8 -59 11 -14 2 -45 7 -70 10 -25 3
-62 7 -81 10 -19 2 -59 7 -88 10 -29 4 -62 8 -73 10 -11 2 -61 7 -112 10 -51
4 -112 9 -137 11 -50 6 -737 14 -742 9z"/>
</g>
</svg>
